<svg xmlns="http://www.w3.org/2000/svg" viewBox="0 0 1440 320"><path fill="#0258b1" fill-opacity="1" d="M0,128L26.7,138.7C53.3,149,107,171,160,181.3C213.3,192,267,192,320,176C373.3,160,427,128,480,133.3C533.3,139,587,181,640,202.7C693.3,224,747,224,800,192C853.3,160,907,96,960,64C1013.3,32,1067,32,1120,53.3C1173.3,75,1227,117,1280,122.7C1333.3,128,1387,96,1413,80L1440,64L1440,320L1413.3,320C1386.7,320,1333,320,1280,320C1226.7,320,1173,320,1120,320C1066.7,320,1013,320,960,320C906.7,320,853,320,800,320C746.7,320,693,320,640,320C586.7,320,533,320,480,320C426.7,320,373,320,320,320C266.7,320,213,320,160,320C106.7,320,53,320,27,320L0,320Z"></path></svg>